<svg width="126" height="127" viewBox="0 0 126 127" fill="none" xmlns="http://www.w3.org/2000/svg">
<path d="M63.07 126.31C97.7701 126.31 125.9 98.1801 125.9 63.48C125.9 28.78 97.7701 0.650024 63.07 0.650024C28.37 0.650024 0.23999 28.78 0.23999 63.48C0.23999 98.1801 28.37 126.31 63.07 126.31Z" fill="#333333"/>
<path d="M41.0299 99.16C40.4917 98.9672 40.0371 98.5938 39.7435 98.1032C39.4499 97.6127 39.3356 97.0355 39.42 96.47C39.48 94.8 39.42 93.12 39.42 91.47V90.7H88.2199V93C88.2199 94.16 88.2199 95.33 88.2199 96.49C88.3039 97.0515 88.1903 97.6248 87.8985 98.1118C87.6066 98.5988 87.1547 98.9693 86.62 99.16H41.0299Z" fill="white"/>
<path d="M78.42 74.04H48.77C49.01 73.04 49.21 72.16 49.48 71.26C50.3784 68.4985 51.6466 65.8713 53.25 63.45C54.35 61.66 55.37 59.81 56.41 57.97C56.5807 57.61 56.7277 57.2392 56.85 56.86L47.02 62.03C46.7603 62.2249 46.4601 62.3587 46.1416 62.4215C45.823 62.4843 45.4944 62.4745 45.1802 62.3928C44.866 62.3112 44.5742 62.1597 44.3266 61.9497C44.079 61.7398 43.8819 61.4767 43.75 61.18L38.47 53.24C38.2691 53.019 38.116 52.759 38.0202 52.4761C37.9245 52.1933 37.8881 51.8937 37.9135 51.5961C37.9388 51.2986 38.0253 51.0094 38.1675 50.7468C38.3097 50.4843 38.5046 50.2538 38.74 50.07C43 45.5567 47.2633 41.0534 51.53 36.56C51.6992 36.3537 51.9371 36.2153 52.2 36.17C56.707 35.8852 61.2255 36.5039 65.49 37.99C70.05 39.68 73.82 42.37 76.21 46.72C77.756 49.6513 78.5336 52.9266 78.47 56.24C78.47 62 78.47 67.76 78.47 73.51C78.46 73.67 78.44 73.83 78.42 74.04Z" fill="white"/>
<path d="M43.61 86.45V83.51C43.61 82.51 43.61 81.46 43.61 80.44C43.593 80.1419 43.6405 79.8437 43.749 79.5656C43.8576 79.2874 44.0247 79.036 44.2391 78.8282C44.4535 78.6204 44.7102 78.4612 44.9916 78.3615C45.273 78.2617 45.5726 78.2237 45.87 78.25H81.76C82.2635 78.1967 82.7684 78.3363 83.173 78.6406C83.5776 78.945 83.8517 79.3915 83.94 79.89C84.03 82.06 83.94 84.24 83.94 86.45H43.61Z" fill="white"/>
<path d="M82.6399 69.28V68.36C82.6399 64.09 82.7099 59.81 82.6399 55.54C82.3599 45.08 76.64 37.37 66.7 33.94C62.4519 32.4737 57.9717 31.7959 53.48 31.94H51.92C51.8698 31.0808 51.8698 30.2193 51.92 29.36C51.9933 28.9167 52.2214 28.5136 52.5638 28.2225C52.9061 27.9314 53.3406 27.7711 53.79 27.77C62.79 27.9 71.26 29.89 78.22 36.06C80.6508 38.1678 82.6389 40.7374 84.0689 43.6196C85.4988 46.5018 86.3422 49.6393 86.55 52.85C86.91 57.61 86.75 62.41 86.78 67.19C86.7866 67.4569 86.7398 67.7223 86.6423 67.9708C86.5448 68.2192 86.3985 68.4456 86.2121 68.6367C86.0258 68.8277 85.803 68.9795 85.5571 69.0832C85.3111 69.1868 85.0469 69.2401 84.78 69.24C84.14 69.32 83.4499 69.28 82.6399 69.28Z" fill="white"/>
</svg>
