<svg width="127" height="127" viewBox="0 0 127 127" fill="none" xmlns="http://www.w3.org/2000/svg">
<path d="M63.19 126.01C97.8901 126.01 126.02 97.88 126.02 63.18C126.02 28.4799 97.8901 0.349976 63.19 0.349976C28.49 0.349976 0.359985 28.4799 0.359985 63.18C0.359985 97.88 28.49 126.01 63.19 126.01Z" fill="#EE5A24"/>
<path d="M62.02 100.25C66.02 90.7 67.94 80.57 70.44 70.6C71.2533 67.38 72.1867 64.1967 73.24 61.05C73.9081 58.9715 75.2086 57.1535 76.96 55.85C77.4 56.68 77.84 57.47 78.25 58.27C81.0997 64.1551 83.1415 70.3982 84.32 76.83C85.2293 81.5407 85.8107 86.3088 86.06 91.1C86.108 91.4799 86.0458 91.8657 85.8809 92.2114C85.7161 92.557 85.4555 92.8481 85.13 93.05C80.4432 96.4816 75.0187 98.7692 69.29 99.73C67.84 99.98 66.38 100.08 64.92 100.25H62.02Z" fill="white"/>
<path d="M100.25 65.49C100.06 66.9 99.92 68.31 99.67 69.7C98.4035 76.9014 95.0074 83.558 89.92 88.81C89.8325 88.8905 89.7389 88.964 89.64 89.03C88.64 76.82 86.27 65.03 80.26 54.11C81.67 53.84 83 53.58 84.34 53.34C86.97 52.86 89.16 53.93 91.2 55.39C93.971 57.531 96.4666 60.0064 98.63 62.76L100.22 64.62L100.25 65.49Z" fill="white"/>
<path d="M70.08 46.86L74.79 52.31C73.95 53.31 73.21 54.15 72.49 55.02C70.7608 57.1717 69.5098 59.6671 68.82 62.34C67.54 67.06 66.38 71.81 65.21 76.56C63.53 83.37 61.94 90.1999 59.42 96.7599C59.09 97.6399 58.66 98.48 58.32 99.36C58.3031 99.4475 58.2669 99.5301 58.2141 99.6019C58.1613 99.6736 58.0931 99.7328 58.0146 99.7749C57.9361 99.817 57.8492 99.8411 57.7602 99.8455C57.6712 99.8498 57.5823 99.8343 57.5 99.8C55.5 99.32 53.5 98.97 51.5 98.34C45.6467 96.4266 40.3753 93.058 36.18 88.55C35.9735 88.3129 35.8692 88.0037 35.89 87.69C36.5182 83.6752 37.9722 79.8343 40.16 76.41C43.8818 70.4056 48.407 64.9383 53.61 60.16C58.5848 55.4031 63.9355 51.0557 69.61 47.16L70.08 46.86Z" fill="white"/>
<path d="M62.61 40.52L67.18 44.2599L66.46 44.81C59.4391 49.6836 52.9353 55.2626 47.05 61.46C42.39 66.46 38.13 71.69 35.21 77.89C34.38 79.65 33.77 81.51 33.07 83.33C32.97 83.59 32.9 83.87 32.78 84.27C32.58 84 32.44 83.83 32.32 83.64C29.3971 79.2504 27.4498 74.2848 26.6097 69.0785C25.7696 63.8721 26.0562 58.5461 27.45 53.46C27.5697 53.1581 27.798 52.912 28.09 52.77C31.2069 51.182 34.5386 50.0569 37.98 49.43C41.47 48.7 44.98 48.08 48.47 47.33C53.162 46.2224 57.5831 44.1818 61.47 41.33L62.61 40.52Z" fill="white"/>
<path d="M59.39 38.24C55.6042 41.024 51.2675 42.9673 46.67 43.94C41.81 44.94 36.98 46.03 32.14 47.12C31.1978 47.3818 30.27 47.6922 29.36 48.05C29.9 46.98 30.36 46.05 30.84 45.14C33.7318 39.9561 37.8224 35.5397 42.77 32.2599C43.57 31.7199 44.41 31.26 45.25 30.77C45.3636 30.7204 45.4861 30.6948 45.61 30.6948C45.7339 30.6948 45.8564 30.7204 45.97 30.77C50.6759 32.8169 55.1706 35.3188 59.39 38.24Z" fill="white"/>
<path d="M99.92 58.45C99.499 57.9435 99.0517 57.4596 98.58 57C96.7 55.31 94.89 53.52 92.88 52C91.3973 50.8665 89.6741 50.0885 87.8432 49.7261C86.0123 49.3638 84.1227 49.4267 82.32 49.91C81.15 50.18 79.99 50.53 78.82 50.8C78.6934 50.8243 78.563 50.8198 78.4384 50.7869C78.3137 50.754 78.1981 50.6936 78.1 50.61C76.51 48.68 74.94 46.73 73.36 44.76C77 42.47 80.81 40.27 85.24 39.44C86.95 39.12 88.66 38.82 90.37 38.56C90.5134 38.5454 90.6581 38.562 90.7945 38.6086C90.9308 38.6552 91.0555 38.7307 91.16 38.83C95.9501 44.3051 98.9998 51.0836 99.92 58.3C99.92 58.3 99.92 58.35 99.92 58.45Z" fill="white"/>
<path d="M70.28 42.06L65.49 38.06C69.23 35.29 71.36 31.78 70.41 26.97C74.71 27.15 84.41 31.9 87.41 35.24C84.41 35.87 81.31 36.37 78.53 37.74C75.75 39.11 73.05 40.58 70.28 42.06Z" fill="white"/>
<path d="M50.34 28.3999C55.5805 26.4663 61.1901 25.7416 66.75 26.2799C66.83 28.0399 67.14 29.83 66.46 31.49C66.0145 32.3406 65.422 33.1058 64.71 33.75C64.05 34.48 63.28 35.12 62.64 35.75L50.34 28.3999Z" fill="white"/>
</svg>
