<svg width="127" height="127" viewBox="0 0 127 127" fill="none" xmlns="http://www.w3.org/2000/svg">
<path d="M63.27 126.08C97.97 126.08 126.1 97.95 126.1 63.2499C126.1 28.5499 97.97 0.419922 63.27 0.419922C28.5699 0.419922 0.440002 28.5499 0.440002 63.2499C0.440002 97.95 28.5699 126.08 63.27 126.08Z" fill="#2C3E61"/>
<path d="M61 27.0599H65.52C65.7 27.0599 65.88 27.1499 66.06 27.1799C67.92 27.4699 69.8 27.6399 71.6301 28.0599C78.5143 29.6936 84.7673 33.3126 89.6133 38.4679C94.4593 43.6232 97.6849 50.0879 98.89 57.0599C99.11 58.3699 99.25 59.7099 99.43 61.0599V65.5799C99.43 65.7899 99.34 65.9899 99.31 66.1999C99.07 67.7999 98.94 69.4299 98.59 71.0099C97.4555 76.2798 95.1551 81.2288 91.8578 85.4934C88.5605 89.758 84.3501 93.2301 79.5354 95.6546C74.7208 98.0792 69.4243 99.3948 64.0348 99.5047C58.6452 99.6146 53.2995 98.5162 48.39 96.2899C32.89 89.3499 24.61 73.0599 27.77 56.2899C29.175 49.1307 32.7098 42.5629 37.9114 37.447C43.1129 32.3312 49.7385 28.9058 56.92 27.6199C58.29 27.3999 59.6501 27.2499 61 27.0599ZM44.35 63.1599C44.3382 66.9017 45.4366 70.5628 47.5063 73.68C49.5761 76.7972 52.5241 79.2302 55.9772 80.6713C59.4303 82.1123 63.2333 82.4965 66.9049 81.7753C70.5765 81.054 73.9515 79.2598 76.603 76.6196C79.2544 73.9794 81.063 70.6119 81.7997 66.9434C82.5365 63.2749 82.1684 59.4703 80.742 56.0112C79.3156 52.552 76.895 49.5937 73.7866 47.5108C70.6782 45.4279 67.0218 44.3139 63.28 44.3099C58.2789 44.3282 53.4867 46.3175 49.9429 49.8464C46.3991 53.3752 44.3895 58.159 44.35 63.1599Z" fill="white"/>
<path d="M48.59 63.1599C48.5999 60.2576 49.4705 57.4235 51.0916 55.0161C52.7127 52.6088 55.0114 50.7364 57.6969 49.6358C60.3825 48.5352 63.3341 48.2559 66.1784 48.8333C69.0227 49.4107 71.6318 50.8188 73.6756 52.8794C75.7194 54.94 77.1061 57.5605 77.6601 60.4094C78.2142 63.2583 77.9108 66.2076 76.7882 68.884C75.6657 71.5605 73.7745 73.8438 71.354 75.4451C68.9334 77.0464 66.0923 77.8937 63.19 77.8799C59.3069 77.8483 55.5936 76.2834 52.8589 73.5263C50.1243 70.7692 48.5899 67.0432 48.59 63.1599ZM58.12 62.6499L57.92 62.8099C57.0785 63.2832 56.3853 63.9814 55.9182 64.8263C55.451 65.6713 55.2283 66.6296 55.2751 67.5939C55.3218 68.5583 55.636 69.4906 56.1826 70.2864C56.7293 71.0823 57.4867 71.7102 58.37 72.0999C59.9312 72.8384 61.6435 73.2014 63.37 73.1599C65.4301 73.2688 67.4735 72.7379 69.22 71.6399C69.9602 71.1724 70.5678 70.5225 70.9846 69.7527C71.4015 68.9828 71.6135 68.1188 71.6005 67.2435C71.5874 66.3681 71.3497 65.5108 70.9101 64.7537C70.4705 63.9966 69.8438 63.3652 69.09 62.9199L68.7 62.6699L69.17 62.2799C69.9813 61.6568 70.5476 60.7684 70.77 59.7699C71.0392 58.6165 70.8843 57.4047 70.3334 56.3562C69.7825 55.3077 68.8725 54.4926 67.77 54.0599C66.4369 53.4516 64.9918 53.1276 63.5266 53.1087C62.0614 53.0898 60.6084 53.3763 59.26 53.9499C58.3906 54.2428 57.6208 54.7738 57.0384 55.4826C56.4559 56.1914 56.0841 57.0494 55.9653 57.9591C55.8465 58.8688 55.9855 59.7936 56.3664 60.6282C56.7474 61.4628 57.355 62.1736 58.12 62.6799V62.6499Z" fill="white"/>
<path d="M63.4 70.0299C62.6797 69.8902 61.971 69.6963 61.28 69.4499C60.8159 69.262 60.4239 68.9307 60.1613 68.5043C59.8987 68.078 59.7791 67.579 59.82 67.0799C59.8021 66.5808 59.941 66.0886 60.2172 65.6725C60.4934 65.2564 60.8931 64.9372 61.36 64.7599C62.0157 64.4655 62.7263 64.3133 63.445 64.3133C64.1637 64.3133 64.8743 64.4655 65.53 64.7599C65.9839 64.941 66.3717 65.2564 66.6415 65.6638C66.9113 66.0713 67.0504 66.5514 67.04 67.0399C67.0779 67.5385 66.9558 68.0362 66.6915 68.4606C66.4271 68.8851 66.0342 69.2141 65.57 69.3999C64.862 69.6594 64.1369 69.8699 63.4 70.0299Z" fill="white"/>
<path d="M63.42 61.3799C62.822 61.2648 62.2337 61.1043 61.66 60.8999C61.2852 60.7461 60.966 60.4821 60.7446 60.1428C60.5231 59.8035 60.4099 59.4049 60.42 58.9999C60.3765 58.5747 60.4643 58.1464 60.6717 57.7727C60.8792 57.399 61.1961 57.0979 61.58 56.9099C62.1493 56.5947 62.7893 56.4294 63.44 56.4294C64.0907 56.4294 64.7308 56.5947 65.3 56.9099C65.6638 57.0949 65.9645 57.3837 66.1639 57.7398C66.3633 58.0958 66.4524 58.5031 66.42 58.9099C66.4309 59.3138 66.3192 59.7115 66.0997 60.0507C65.8801 60.3898 65.563 60.6545 65.19 60.8099C64.6139 61.0404 64.0224 61.2309 63.42 61.3799Z" fill="white"/>
</svg>
