<svg width="126" height="126" viewBox="0 0 126 126" fill="none" xmlns="http://www.w3.org/2000/svg">
<path d="M62.83 125.66C97.5301 125.66 125.66 97.5301 125.66 62.83C125.66 28.13 97.5301 0 62.83 0C28.13 0 0 28.13 0 62.83C0 97.5301 28.13 125.66 62.83 125.66Z" fill="#8E3A16"/>
<path d="M64.68 92.46V93.91H100.68V92.46H64.68Z" fill="white"/>
<path d="M94.58 92.46C97.5237 92.46 99.91 90.0737 99.91 87.13C99.91 84.1863 97.5237 81.8 94.58 81.8C91.6363 81.8 89.25 84.1863 89.25 87.13C89.25 90.0737 91.6363 92.46 94.58 92.46Z" fill="white"/>
<path d="M85.13 92.46C86.1241 92.46 86.93 91.6541 86.93 90.66C86.93 89.6659 86.1241 88.86 85.13 88.86C84.1359 88.86 83.33 89.6659 83.33 90.66C83.33 91.6541 84.1359 92.46 85.13 92.46Z" fill="white"/>
<path d="M32.54 47.69C33.2846 48.3237 34.1743 48.7634 35.13 48.97C38.2782 49.9783 41.5473 50.5601 44.85 50.7C45.07 50.7 45.29 50.7 45.54 50.77L48.61 51.14L46.82 53.59C46.71 53.75 46.62 53.87 46.53 53.98C46.09 54.49 45.65 54.98 45.2 55.5C44.2 56.61 43.32 57.64 42.5 58.76C40.94 60.88 40.65 62.42 41.5 64.08C41.8137 64.7422 41.8741 65.4963 41.67 66.2C40.5484 70.9052 38.6016 75.3743 35.92 79.4C33.501 83.1247 30.7534 86.6254 27.71 89.86C27.4568 90.1111 27.2564 90.4103 27.1207 90.7401C26.9851 91.0698 26.9168 91.4234 26.92 91.78C26.9471 92.1627 27.0494 92.5363 27.221 92.8795C27.3926 93.2227 27.6301 93.5287 27.92 93.78C28.1664 94.0517 28.47 94.2654 28.8089 94.4056C29.1478 94.5458 29.5136 94.6091 29.8799 94.5909C30.2463 94.5728 30.604 94.4736 30.9274 94.3005C31.2508 94.1274 31.5317 93.8847 31.75 93.59C37.4123 87.8318 41.9201 81.043 45.03 73.59C45.12 73.37 45.22 73.16 45.34 72.91L46.77 69.91L48.35 72.43C50.7175 76.0687 52.3828 80.1185 53.26 84.37C53.55 85.86 53.71 87.37 53.87 88.83C53.97 89.83 54.07 90.76 54.21 91.72C54.2653 92.0776 54.3921 92.4204 54.583 92.7278C54.7738 93.0353 55.0247 93.301 55.3207 93.5092C55.6167 93.7174 55.9516 93.8638 56.3054 93.9395C56.6593 94.0153 57.0247 94.0188 57.38 93.95C57.7077 93.9426 58.0303 93.8667 58.3269 93.7272C58.6236 93.5877 58.8877 93.3876 59.1025 93.14C59.3172 92.8923 59.4777 92.6024 59.5737 92.289C59.6698 91.9755 59.6991 91.6455 59.66 91.32C59.5829 85.471 58.2171 79.711 55.66 74.45C54.66 72.45 53.59 70.58 52.42 68.58C51.88 67.66 51.34 66.74 50.8 65.79L50.25 64.79L51.75 62.99C52.33 62.3 52.95 61.56 53.56 60.81C57.23 56.32 59.43 52.53 60.71 48.53C61.46 46.17 60.77 44.16 58.83 43.04C57.8166 42.4155 56.6255 42.1427 55.4413 42.2638C54.2572 42.385 53.146 42.8933 52.28 43.71C51.641 44.36 50.8167 44.7966 49.92 44.96C45.1966 45.5822 40.3929 45.0503 35.92 43.41L35.55 43.28C34.8864 42.9663 34.1512 42.8351 33.42 42.9" fill="white"/>
<path d="M64.84 39.79C65.8 38.8486 66.3468 37.5645 66.36 36.22C66.3651 35.5627 66.2406 34.9108 65.9935 34.3016C65.7464 33.6925 65.3816 33.138 64.92 32.67C64.4502 32.192 63.8899 31.8123 63.2718 31.5531C62.6537 31.2938 61.9902 31.1602 61.32 31.16C59.9988 31.1756 58.736 31.7074 57.8017 32.6417C56.8674 33.576 56.3356 34.8388 56.32 36.16C56.3376 37.4872 56.8679 38.756 57.7998 39.7011C58.7318 40.6461 59.9932 41.194 61.32 41.23C62.6372 41.2324 63.9021 40.7149 64.84 39.79Z" fill="white"/>
<path d="M60.79 54.67L60.94 54.92C62.0716 56.4257 63.3009 57.8555 64.62 59.2C64.8282 59.4538 65.0872 59.6611 65.3804 59.8087C65.6736 59.9563 65.9944 60.0408 66.3223 60.0568C66.6501 60.0729 66.9777 60.02 67.2839 59.9017C67.5901 59.7834 67.8681 59.6023 68.1 59.37C68.6187 58.9738 68.9693 58.3969 69.0824 57.7541C69.1954 57.1112 69.0624 56.4494 68.71 55.9C67.38 53.9 64.52 51 63.15 49.11L61.92 51.95C61.56 52.86 61.17 53.76 60.79 54.67Z" fill="white"/>
<path d="M28.95 49.61C32.1312 49.61 34.71 47.0312 34.71 43.85C34.71 40.6688 32.1312 38.09 28.95 38.09C25.7688 38.09 23.19 40.6688 23.19 43.85C23.19 47.0312 25.7688 49.61 28.95 49.61Z" fill="white"/>
</svg>
