<svg width="126" height="127" viewBox="0 0 126 127" fill="none" xmlns="http://www.w3.org/2000/svg">
<path d="M62.83 126.08C97.5301 126.08 125.66 97.95 125.66 63.2499C125.66 28.5499 97.5301 0.419922 62.83 0.419922C28.13 0.419922 0 28.5499 0 63.2499C0 97.95 28.13 126.08 62.83 126.08Z" fill="#1F1E63"/>
<path d="M54.79 99.3499C53.1854 99.1511 51.593 98.864 50.02 98.4899C39.44 95.3999 32.76 88.4899 30.72 77.6499C29.4934 71.1723 30.7733 64.4707 34.3007 58.901C37.8281 53.3314 43.3397 49.3097 49.72 47.6499C53.344 46.6125 57.1525 46.3893 60.8729 46.9961C64.5933 47.6029 68.1335 49.0248 71.24 51.1599C71.38 51.2499 71.5 51.3499 71.68 51.4799C71.06 53.3699 70.44 55.2499 69.83 57.1499C67.5955 64.179 67.0137 71.6291 68.13 78.9199C68.91 84.2533 69.6567 89.5866 70.37 94.9199C70.3658 95.0557 70.3302 95.1886 70.266 95.3083C70.2018 95.428 70.1107 95.5313 70 95.6099C66.6686 97.61 62.9293 98.8336 59.06 99.1899C58.8539 99.2188 58.65 99.2623 58.45 99.3199L54.79 99.3499ZM47.53 65.6099C47.53 65.996 47.606 66.3783 47.7538 66.735C47.9015 67.0917 48.1181 67.4158 48.3911 67.6888C48.6641 67.9618 48.9882 68.1784 49.3449 68.3261C49.7016 68.4739 50.0839 68.5499 50.47 68.5499C50.8561 68.5499 51.2384 68.4739 51.5951 68.3261C51.9518 68.1784 52.2759 67.9618 52.5489 67.6888C52.8219 67.4158 53.0385 67.0917 53.1862 66.735C53.334 66.3783 53.41 65.996 53.41 65.6099C53.41 64.8302 53.1002 64.0824 52.5489 63.531C51.9975 62.9796 51.2497 62.6699 50.47 62.6699C49.6903 62.6699 48.9425 62.9796 48.3911 63.531C47.8397 64.0824 47.53 64.8302 47.53 65.6099ZM62.83 68.6099C62.83 68.0166 62.6541 67.4366 62.3244 66.9432C61.9948 66.4499 61.5262 66.0653 60.9781 65.8383C60.4299 65.6112 59.8267 65.5518 59.2447 65.6675C58.6628 65.7833 58.1282 66.069 57.7087 66.4886C57.2891 66.9081 57.0034 67.4427 56.8876 68.0246C56.7719 68.6066 56.8313 69.2098 57.0584 69.758C57.2854 70.3061 57.6699 70.7747 58.1633 71.1043C58.6566 71.434 59.2367 71.6099 59.83 71.6099C60.2274 71.61 60.6208 71.531 60.9874 71.3778C61.354 71.2245 61.6865 71 61.9656 70.7171C62.2447 70.4343 62.4648 70.0989 62.6132 69.7303C62.7616 69.3616 62.8353 68.9672 62.83 68.5699V68.6099ZM54.92 59.8999C54.92 60.677 55.2287 61.4223 55.7782 61.9717C56.3277 62.5212 57.0729 62.8299 57.85 62.8299C58.6271 62.8299 59.3723 62.5212 59.9218 61.9717C60.4713 61.4223 60.78 60.677 60.78 59.8999C60.78 59.1228 60.4713 58.3776 59.9218 57.8281C59.3723 57.2786 58.6271 56.9699 57.85 56.9699C57.0729 56.9699 56.3277 57.2786 55.7782 57.8281C55.2287 58.3776 54.92 59.1228 54.92 59.8999Z" fill="white"/>
<path d="M91.97 98.9699H91.16C86.16 98.9699 81.16 98.9699 76.16 98.9699C75.53 98.9699 75.3 98.8299 75.16 98.1499C74.28 91.6232 73.3633 85.0932 72.41 78.5599C71.267 71.1646 71.9959 63.6008 74.53 56.5599C75.04 55.1399 74.61 55.3899 76.13 55.3899C81.3 55.3899 86.47 55.3899 91.63 55.3899C91.843 55.3578 92.0601 55.4097 92.2355 55.5347C92.411 55.6598 92.5309 55.8481 92.57 56.0599C94.61 61.4555 95.5452 67.2059 95.32 72.9699C95.15 76.1099 94.7 79.2299 94.32 82.3399C93.63 87.5299 92.87 92.7099 92.14 97.8899C92.09 98.2199 92.04 98.5399 91.97 98.9699Z" fill="white"/>
<path d="M88.78 41.8299H78.41C78.41 41.7499 78.33 41.7099 78.34 41.6699C78.4546 39.3314 78.3441 36.9873 78.01 34.6699C77.8331 32.8012 78.3413 30.9319 79.44 29.4099C79.9075 28.7211 80.5365 28.1571 81.2721 27.7673C82.0077 27.3776 82.8275 27.1738 83.66 27.1738C84.4925 27.1738 85.3123 27.3776 86.0479 27.7673C86.7835 28.1571 87.4125 28.7211 87.88 29.4099C89.0023 31.0269 89.5094 32.9918 89.31 34.9499C89.14 37.2099 88.92 39.4699 88.78 41.8299Z" fill="white"/>
<path d="M90.92 51.0699H76.4L77.71 46.2299H78.19C81.81 46.2299 85.42 46.2299 89.04 46.2299C89.49 46.2299 89.67 46.3399 89.78 46.8199C90.11 48.1599 90.51 49.5799 90.92 51.0699Z" fill="white"/>
</svg>
