<svg width="126" height="127" viewBox="0 0 126 127" fill="none" xmlns="http://www.w3.org/2000/svg">
<path d="M62.99 126.31C97.6901 126.31 125.82 98.1801 125.82 63.48C125.82 28.78 97.6901 0.650024 62.99 0.650024C28.29 0.650024 0.160034 28.78 0.160034 63.48C0.160034 98.1801 28.29 126.31 62.99 126.31Z" fill="#719DF4"/>
<path d="M106.98 62.32C106.567 63.0639 106.041 63.7387 105.42 64.32C103.71 65.52 101.52 64.63 100.74 62.54C99.8001 59.98 98.8834 57.4101 97.9901 54.8301C97.9402 54.5809 97.8072 54.3561 97.6127 54.1926C97.4183 54.029 97.174 53.9364 96.92 53.93C95.82 53.82 94.72 53.6301 93.52 53.4501C93.67 53.8501 93.79 54.1701 93.92 54.4501C95.4467 58.1301 96.9834 61.7967 98.53 65.4501C98.967 66.324 99.0902 67.3217 98.879 68.2757C98.6678 69.2297 98.135 70.0821 97.3701 70.69C95.4401 72.5 93.73 74.54 91.92 76.48L91.6 76.28L92.1801 77.03C95.3934 80.9034 98.6034 84.7734 101.81 88.6401C102.183 89.0169 102.474 89.4672 102.664 89.9624C102.854 90.4576 102.939 90.9868 102.914 91.5166C102.889 92.0464 102.754 92.5652 102.518 93.0402C102.282 93.5151 101.95 93.9358 101.542 94.2757C101.135 94.6155 100.662 94.867 100.152 95.0143C99.6428 95.1616 99.1082 95.2015 98.5825 95.1314C98.0567 95.0613 97.5513 94.8828 97.0981 94.6071C96.645 94.3315 96.2541 93.9647 95.9501 93.53C94.0501 91.27 92.17 88.99 90.29 86.72L85.29 80.66C85.14 80.4701 84.9701 80.3 84.7601 80.06L84.21 81.1301C82.3 84.9901 80.39 88.86 78.46 92.71C78.2694 93.1921 77.9827 93.6303 77.6174 93.9979C77.252 94.3656 76.8156 94.6551 76.3348 94.8487C75.854 95.0424 75.3388 95.1361 74.8206 95.1243C74.3024 95.1125 73.792 94.9953 73.3205 94.78C72.8491 94.5646 72.4263 94.2556 72.0781 93.8716C71.7299 93.4877 71.4635 93.0369 71.295 92.5467C71.1266 92.0565 71.0596 91.5371 71.0983 91.0202C71.137 90.5033 71.2805 89.9997 71.52 89.5401C72.27 87.9301 73.0901 86.36 73.8801 84.77C75.7401 81 77.5701 77.22 79.5101 73.49C79.9895 72.6081 80.6467 71.8351 81.4401 71.22C82.9401 70.01 84.57 68.94 86.22 67.76L83.03 60.1701L81.39 62.16C81.0307 62.632 80.5526 63.0002 80.0044 63.2268C79.4563 63.4535 78.8577 63.5305 78.27 63.4501C74.78 63.0301 71.27 62.6201 67.78 62.1401C67.0361 62.0505 66.3526 61.6857 65.864 61.1176C65.3754 60.5494 65.1172 59.819 65.14 59.07C65.1019 58.3397 65.3319 57.6205 65.7867 57.0478C66.2416 56.4751 66.89 56.0882 67.61 55.96C68.7172 55.9191 69.8258 55.9861 70.92 56.16C72.92 56.37 74.92 56.6601 76.86 56.8601C77.1925 56.866 77.5146 56.7443 77.7601 56.52C78.1601 56.16 78.45 55.68 78.83 55.28C79.2947 54.8808 79.6518 54.3713 79.8684 53.7982C80.085 53.2251 80.1544 52.6069 80.0701 52C79.8301 50.1 80.9201 48.6501 82.5701 47.6401C85.1601 46.0501 87.9 46.02 90.79 46.57C93.87 47.17 96.99 47.5701 100.1 48.0101C100.823 48.0811 101.507 48.3695 102.062 48.8373C102.617 49.305 103.017 49.9301 103.21 50.63C104.43 54.1 105.7 57.55 106.95 61.01L106.98 62.32Z" fill="white"/>
<path d="M32.5701 73.74C31.4501 71.09 30.42 68.5 29.28 65.96C28.8839 65.1688 28.7671 64.2668 28.9486 63.4007C29.1302 62.5347 29.5994 61.7556 30.28 61.19C33.22 58.26 36.2101 55.37 39.1901 52.47C39.3566 52.3299 39.5338 52.2028 39.72 52.09L39.65 51.87C38.38 51.53 37.12 51.18 35.84 50.87C35.66 50.87 35.3701 51.08 35.2001 51.27C33.3501 53.27 31.54 55.33 29.63 57.27C29.0683 57.8509 28.36 58.269 27.5801 58.4801C26.945 58.6251 26.2797 58.5544 25.6894 58.2792C25.099 58.0039 24.6172 57.5397 24.32 56.96C23.9786 56.4067 23.8261 55.7574 23.8857 55.1099C23.9452 54.4625 24.2134 53.8518 24.6501 53.37C27.1701 50.56 29.7301 47.79 32.3001 45.03C32.7038 44.5957 33.2234 44.2858 33.7974 44.137C34.3715 43.9882 34.9761 44.0066 35.54 44.19C39.54 45.19 43.54 46.19 47.54 47.27C48.6949 47.627 49.7591 48.2291 50.66 49.035C51.5609 49.841 52.2772 50.8319 52.7601 51.94C53.1089 52.6907 53.252 53.5205 53.1747 54.3446C53.0974 55.1687 52.8025 55.9574 52.3201 56.6301C52.1276 56.9624 52.0635 57.3537 52.14 57.7301C52.3672 58.7505 52.668 59.7531 53.04 60.7301C53.1145 60.9034 53.2241 61.0595 53.3618 61.1886C53.4994 61.3176 53.6622 61.4169 53.84 61.4801C56.37 62.2501 58.92 62.9501 61.46 63.7001C61.9104 63.7932 62.3352 63.9829 62.7052 64.2561C63.0752 64.5294 63.3815 64.8796 63.603 65.2827C63.8245 65.6857 63.9559 66.132 63.9882 66.5908C64.0205 67.0496 63.9529 67.5099 63.79 67.94C63.5585 68.672 63.0552 69.2874 62.3836 69.6594C61.7121 70.0315 60.9234 70.1319 60.1801 69.94C56.7001 69.01 53.24 67.99 49.78 66.99C49.2384 66.8332 48.7478 66.5361 48.358 66.1286C47.9681 65.7212 47.6929 65.2181 47.5601 64.6701C47.3301 63.9201 47.09 63.16 46.83 62.34L41.83 67.7601L41.46 67.5101L42.53 68.71C44.7434 71.17 46.9601 73.6234 49.1801 76.0701C49.7446 76.6306 50.1426 77.3368 50.3298 78.1101C50.5169 78.8833 50.4859 79.6934 50.2401 80.4501C49.1401 84.3601 48.12 88.3 47.04 92.22C46.8718 93.0464 46.43 93.792 45.7859 94.3363C45.1418 94.8807 44.3329 95.192 43.4901 95.22C42.7067 95.2921 41.9217 95.1012 41.2589 94.6775C40.5962 94.2537 40.0934 93.6213 39.83 92.8801C39.5609 92.0324 39.5195 91.1288 39.71 90.2601C40.46 87.1001 41.35 83.9801 42.22 80.8501C42.3361 80.6065 42.3666 80.3309 42.3067 80.0678C42.2468 79.8047 42.1 79.5694 41.89 79.4C41.4543 78.9711 41.0405 78.5206 40.65 78.0501C39.51 78.7101 38.45 79.36 37.35 79.93C32.2234 82.5967 27.0867 85.2634 21.94 87.93C21.1166 88.4417 20.1302 88.623 19.1787 88.4375C18.2271 88.252 17.381 87.7135 16.8101 86.93C16.4755 86.4779 16.2455 85.9572 16.1367 85.4053C16.0278 84.8535 16.0428 84.2844 16.1806 83.7391C16.3183 83.1938 16.5755 82.6859 16.9333 82.252C17.2912 81.8181 17.7409 81.4691 18.25 81.2301C20.15 80.2301 22.0801 79.2301 23.9901 78.2301L32.5701 73.74Z" fill="white"/>
<path d="M54.8201 47.41C53.6633 47.3942 52.5372 47.0364 51.5834 46.3816C50.6297 45.7269 49.8911 44.8045 49.4608 43.7307C49.0304 42.6569 48.9274 41.4797 49.1649 40.3475C49.4024 39.2153 49.9697 38.1787 50.7954 37.3684C51.621 36.5581 52.668 36.0102 53.8044 35.7939C54.9409 35.5776 56.1159 35.7025 57.1815 36.1529C58.2471 36.6033 59.1555 37.359 59.7923 38.3248C60.4291 39.2905 60.7659 40.4232 60.7601 41.5801C60.7364 43.138 60.0995 44.6237 58.9875 45.7151C57.8755 46.8065 56.3781 47.4155 54.8201 47.41Z" fill="white"/>
<path d="M61.0601 83.48C62.2203 83.484 63.3533 83.8324 64.3154 84.4809C65.2775 85.1295 66.0254 86.049 66.4643 87.123C66.9033 88.1971 67.0135 89.3772 66.781 90.514C66.5486 91.6507 65.9839 92.6929 65.1586 93.5084C64.3333 94.3239 63.2844 94.876 62.145 95.0948C61.0055 95.3137 59.8268 95.1893 58.7581 94.7375C57.6894 94.2857 56.7789 93.5269 56.1419 92.5571C55.505 91.5873 55.1702 90.4503 55.1801 89.29C55.2011 87.7435 55.8295 86.2674 56.9297 85.1803C58.0298 84.0932 59.5135 83.4825 61.0601 83.48Z" fill="white"/>
<path d="M83.5601 31.74C84.7189 31.744 85.8506 32.0909 86.8126 32.737C87.7746 33.3831 88.5239 34.2994 88.966 35.3706C89.4081 36.4418 89.5233 37.6199 89.2969 38.7564C89.0706 39.893 88.5129 40.9371 87.6942 41.7572C86.8755 42.5773 85.8323 43.1368 84.6962 43.365C83.56 43.5933 82.3818 43.4801 81.3098 43.0399C80.2379 42.5996 79.3202 41.8519 78.6725 40.8909C78.0248 39.93 77.676 38.7989 77.67 37.64C77.6753 36.0786 78.2972 34.5825 79.4004 33.4774C80.5036 32.3724 81.9986 31.7479 83.5601 31.74Z" fill="white"/>
</svg>
