<svg width="126" height="126" viewBox="0 0 126 126" fill="none" xmlns="http://www.w3.org/2000/svg">
<path d="M62.83 125.66C97.5301 125.66 125.66 97.5301 125.66 62.83C125.66 28.13 97.5301 0 62.83 0C28.13 0 0 28.13 0 62.83C0 97.5301 28.13 125.66 62.83 125.66Z" fill="#BF8A34"/>
<path d="M71.2401 20.58C72.626 20.8667 73.8759 21.6095 74.7901 22.6899C75.3684 23.4212 75.7502 24.2881 75.8993 25.2083C76.0484 26.1286 75.9598 27.0717 75.6419 27.9481C75.3241 28.8245 74.7875 29.6051 74.0832 30.2158C73.3789 30.8266 72.5301 31.2471 71.6176 31.4376C70.705 31.6281 69.7588 31.5823 68.869 31.3044C67.9791 31.0265 67.175 30.5257 66.5331 29.8497C65.8911 29.1736 65.4326 28.3448 65.2011 27.4417C64.9695 26.5387 64.9726 25.5915 65.2101 24.6899C65.4615 23.7267 65.9734 22.8513 66.6896 22.1599C67.4058 21.4684 68.2986 20.9875 69.2701 20.77L69.7501 20.6199L71.2401 20.58Z" fill="white"/>
<path d="M69.02 61.07L67.59 62.9099L56.05 77.81C54.4434 79.89 52.54 80.2233 50.34 78.81L40.09 72.25C39.4575 71.901 38.9395 71.3762 38.5988 70.7391C38.258 70.102 38.1091 69.3799 38.1701 68.6599C38.196 67.9988 38.4052 67.3579 38.7742 66.8087C39.1433 66.2596 39.6577 65.8237 40.2601 65.55C40.8829 65.2373 41.5806 65.1045 42.2748 65.1664C42.969 65.2282 43.6322 65.4822 44.19 65.9L51.19 70.39L51.87 70.8C52.02 70.59 52.17 70.41 52.31 70.21C55.69 65.09 59.0667 59.9699 62.44 54.8499C62.6817 54.4577 62.8194 54.0102 62.84 53.55C62.95 51.08 63.0201 48.61 63.1001 46.13C63.1001 45.72 63.1001 45.31 63.1001 44.74C62.4101 45.61 61.8301 46.3599 61.2301 47.0999C59.7701 48.8799 58.33 50.6799 56.81 52.4099C56.1727 53.1286 55.4351 53.7517 54.62 54.26C54.0788 54.5369 53.4562 54.6105 52.8654 54.4675C52.2745 54.3244 51.7545 53.9742 51.3999 53.4804C51.0453 52.9866 50.8795 52.3819 50.9328 51.7763C50.986 51.1707 51.2547 50.6043 51.69 50.18C53.6848 48.3628 55.4724 46.3304 57.02 44.12C59.23 41.3 61.35 38.4 63.47 35.5C63.8021 35.025 64.2335 34.6279 64.7342 34.3361C65.2349 34.0443 65.7931 33.8648 66.37 33.81C69.1723 33.475 72.0033 33.4549 74.81 33.75C75.0579 33.799 75.3149 33.7717 75.547 33.6717C75.779 33.5717 75.9754 33.4038 76.1101 33.19C78.6901 29.73 81.27 26.29 83.9 22.88C84.3007 22.3539 84.822 21.9321 85.4201 21.65C85.8975 21.4633 86.4226 21.4364 86.9167 21.5734C87.4107 21.7104 87.847 22.0039 88.16 22.4099C88.505 22.8034 88.716 23.2964 88.7628 23.8176C88.8095 24.3388 88.6895 24.8614 88.4201 25.31C87.9323 26.0865 87.4049 26.8375 86.84 27.56C84.19 31.02 81.5301 34.46 78.8901 37.93C78.6628 38.2195 78.5177 38.565 78.47 38.93C78.17 45.0633 77.8867 51.1966 77.62 57.33C77.6336 57.6878 77.748 58.0344 77.9501 58.33C80.6101 62.39 83.3101 66.41 85.9501 70.49C86.4171 71.2088 86.7083 72.0276 86.8 72.88C87.38 79.17 87.89 85.46 88.4 91.75C88.5276 92.6654 88.3208 93.5961 87.8175 94.3712C87.3142 95.1464 86.5482 95.714 85.66 95.9699C84.7942 96.2283 83.8632 96.1555 83.0481 95.7655C82.233 95.3755 81.5921 94.6963 81.25 93.8599C80.9369 92.7726 80.7589 91.6509 80.72 90.52C80.26 85.27 79.8401 80.01 79.3901 74.76C79.3684 74.4718 79.2681 74.1951 79.1001 73.96C75.8601 69.76 72.6167 65.57 69.37 61.39C69.26 61.33 69.15 61.23 69.02 61.07Z" fill="white"/>
<path d="M70.4701 98.2C70.4582 99.4188 70.0862 100.607 69.4009 101.615C68.7155 102.623 67.7474 103.405 66.6184 103.865C65.4893 104.324 64.2496 104.439 63.0554 104.195C61.8611 103.952 60.7655 103.36 59.9064 102.496C59.0473 101.631 58.4631 100.532 58.2272 99.3359C57.9913 98.1401 58.1143 96.9012 58.5807 95.7751C59.0471 94.649 59.8361 93.686 60.8484 93.0071C61.8607 92.3283 63.0512 91.964 64.27 91.96C65.0872 91.9613 65.8961 92.1238 66.6504 92.4384C67.4046 92.7529 68.0894 93.2132 68.6654 93.7929C69.2414 94.3726 69.6972 95.0603 70.0069 95.8166C70.3166 96.5728 70.474 97.3828 70.4701 98.2Z" fill="white"/>
<path d="M46.5163 85.4814C46.4319 85.4753 46.3472 85.4907 46.2703 85.5262L24.9303 95.3862C24.6796 95.502 24.5703 95.7991 24.6861 96.0498C24.8019 96.3005 25.0991 96.4098 25.3497 96.294L36.8621 90.9748L49.4701 91.7501L58.6918 87.3709L73.7637 88.4688C74.0391 88.4888 74.2786 88.2818 74.2987 88.0064C74.3188 87.731 74.1118 87.4915 73.8363 87.4714L46.5163 85.4814Z" fill="white"/>
</svg>
