<svg width="127" height="126" viewBox="0 0 127 126" fill="none" xmlns="http://www.w3.org/2000/svg">
<path d="M63.65 125.66C98.3501 125.66 126.48 97.5301 126.48 62.83C126.48 28.13 98.3501 0 63.65 0C28.95 0 0.820007 28.13 0.820007 62.83C0.820007 97.5301 28.95 125.66 63.65 125.66Z" fill="#F17B50"/>
<path d="M98.64 60.4C98.4294 61.0186 98.158 61.6149 97.83 62.18C97.4158 62.7554 96.8609 63.2148 96.2183 63.5142C95.5756 63.8137 94.8669 63.9431 94.16 63.89C88.9 63.89 83.64 63.89 78.38 63.89C75.55 63.89 73.9 62.19 73.9 59.36V57.72L67.44 64.16C67.6161 64.2128 67.7795 64.3013 67.92 64.42C70.77 67.24 73.6 70.08 76.43 72.91C78.53 75.01 78.53 77.34 76.43 79.43C71.85 84.0233 67.26 88.6133 62.66 93.2C62.2599 93.6626 61.7617 94.0301 61.2016 94.2757C60.6415 94.5213 60.0337 94.6388 59.4224 94.6197C58.8111 94.6005 58.2118 94.4452 57.6682 94.165C57.1245 93.8848 56.6502 93.4868 56.28 93C55.7358 92.2897 55.441 91.4198 55.441 90.525C55.441 89.6302 55.7358 88.7603 56.28 88.05C56.5241 87.7493 56.7845 87.4622 57.06 87.19L67.5 76.76C67.6886 76.591 67.8929 76.4403 68.11 76.31L68.17 76.01C67.943 75.9038 67.7284 75.7731 67.53 75.62C64.6833 72.8 61.8466 69.9667 59.02 67.12C56.95 65.06 56.94 62.71 59.02 60.65C64.3 55.37 69.62 50.12 74.86 44.79C75.2926 44.2974 75.8365 43.9152 76.4465 43.6751C77.0565 43.435 77.715 43.3439 78.3673 43.4095C79.0196 43.475 79.6468 43.6952 80.1969 44.0518C80.747 44.4085 81.204 44.8912 81.53 45.46C81.8782 46.1456 82.0662 46.9012 82.08 47.67C82.14 50.06 82.08 52.45 82.08 54.84V55.67H82.92C86.66 55.67 90.39 55.67 94.13 55.67C94.965 55.6051 95.8001 55.7949 96.525 56.2145C97.2498 56.634 97.8304 57.2636 98.19 58.02C98.3595 58.3885 98.4999 58.7696 98.61 59.16L98.64 60.4Z" fill="white"/>
<path d="M53.73 65.99C54.44 68.99 56.82 70.54 58.65 72.57L58.29 72.99L38.1 93.16C37.7479 93.5726 37.3179 93.9116 36.8346 94.1576C36.3513 94.4036 35.8242 94.5517 35.2834 94.5935C34.7427 94.6353 34.199 94.57 33.6836 94.4012C33.1682 94.2324 32.6912 93.9635 32.28 93.61C31.8749 93.2742 31.5401 92.8618 31.2947 92.3964C31.0493 91.931 30.8981 91.4218 30.8498 90.8979C30.8015 90.374 30.8571 89.8457 31.0132 89.3433C31.1694 88.8409 31.4232 88.3742 31.76 87.97C31.96 87.72 32.18 87.49 32.4 87.26L53.12 66.56C53.28 66.4 53.45 66.25 53.73 65.99Z" fill="white"/>
<path d="M74.49 40.09C71.87 41.45 70.31 43.85 68.16 45.66L65.05 43.43C64.9381 43.656 64.8041 43.8704 64.65 44.07C61.93 46.79 59.22 49.52 56.49 52.23C56.127 52.6393 55.686 52.9723 55.1929 53.2094C54.6998 53.4465 54.1644 53.583 53.6179 53.6109C53.0715 53.6388 52.5249 53.5576 52.0102 53.372C51.4955 53.1865 51.0229 52.9002 50.62 52.53C49.8686 51.8343 49.4062 50.8816 49.3247 49.8609C49.2432 48.8401 49.5485 47.8261 50.18 47.02C50.3967 46.7581 50.6271 46.5078 50.87 46.27C54.37 42.75 57.8766 39.24 61.39 35.74C63.31 33.82 65.21 33.64 67.39 35.18L73.92 39.65L74.49 40.09Z" fill="white"/>
<path d="M84.1499 31.1C85.3623 31.104 86.5464 31.4673 87.5522 32.1442C88.5581 32.8211 89.3406 33.781 89.8009 34.9026C90.2612 36.0242 90.3786 37.2572 90.1382 38.4455C89.8978 39.6338 89.3104 40.7242 88.4503 41.5786C87.5903 42.4331 86.496 43.0134 85.3062 43.2461C84.1163 43.4787 82.8842 43.3533 81.7656 42.8857C80.647 42.4181 79.6922 41.6292 79.0219 40.619C78.3517 39.6087 77.996 38.4224 78 37.21C78.0157 35.5875 78.67 34.0365 79.8211 32.8929C80.9722 31.7493 82.5274 31.1052 84.1499 31.1Z" fill="white"/>
<path d="M39.92 41.33C38.24 41.33 36.55 41.33 34.92 41.33C34.5779 41.3569 34.2346 41.2953 33.9232 41.1512C33.6118 41.007 33.3426 40.7851 33.1418 40.5069C32.9409 40.2287 32.8149 39.9034 32.7761 39.5625C32.7373 39.2215 32.7868 38.8763 32.92 38.56C33.0389 38.224 33.2485 37.9274 33.5257 37.7033C33.8028 37.4791 34.1366 37.3361 34.49 37.29C34.7617 37.2531 35.0358 37.2364 35.31 37.24C38.45 37.24 41.59 37.24 44.73 37.24C45.1388 37.2238 45.5475 37.2745 45.94 37.39C46.3717 37.5462 46.7365 37.8461 46.9732 38.2394C47.2099 38.6327 47.3041 39.0954 47.24 39.55C47.1907 40.0089 46.9793 40.4352 46.6439 40.7523C46.3085 41.0694 45.871 41.2565 45.41 41.28C43.59 41.34 41.77 41.28 39.95 41.28L39.92 41.33Z" fill="white"/>
<path d="M35.92 45.44C37.61 45.44 39.3 45.44 40.98 45.44C41.3209 45.4139 41.6627 45.4757 41.9729 45.6194C42.2831 45.763 42.5513 45.9838 42.7519 46.2606C42.9525 46.5375 43.0788 46.8611 43.1187 47.2006C43.1587 47.5401 43.1109 47.8842 42.98 48.2C42.8621 48.5366 42.6528 48.8338 42.3754 49.0581C42.0981 49.2824 41.7638 49.425 41.41 49.47C41.1383 49.5069 40.8642 49.5236 40.59 49.52H31.17C30.7609 49.5279 30.3529 49.474 29.96 49.36C29.5265 49.2056 29.1594 48.9065 28.9208 48.513C28.6822 48.1195 28.5865 47.6558 28.65 47.2C28.7105 46.7456 28.9254 46.3258 29.2585 46.0108C29.5916 45.6959 30.0229 45.505 30.48 45.47C32.3 45.41 34.12 45.47 35.94 45.47L35.92 45.44Z" fill="white"/>
<path d="M40.05 53.64C41.73 53.64 43.42 53.64 45.05 53.64C45.3896 53.6148 45.73 53.6767 46.039 53.8199C46.348 53.963 46.6153 54.1827 46.8156 54.4582C47.0159 54.7336 47.1426 55.0556 47.1836 55.3937C47.2246 55.7317 47.1787 56.0747 47.05 56.39C46.9315 56.7374 46.716 57.0435 46.4289 57.2721C46.1417 57.5008 45.7951 57.6423 45.43 57.68C45.1802 57.6949 44.9298 57.6949 44.68 57.68C41.52 57.68 38.35 57.68 35.19 57.68C34.8012 57.6913 34.413 57.6406 34.04 57.53C33.6065 57.3778 33.2387 57.0809 32.9983 56.6894C32.7579 56.2978 32.6596 55.8355 32.72 55.38C32.7738 54.9217 32.9844 54.4961 33.3161 54.1754C33.6478 53.8546 34.0802 53.6584 34.54 53.62C34.6299 53.6151 34.7201 53.6151 34.81 53.62L40.05 53.64Z" fill="white"/>
</svg>
