<svg width="127" height="126" viewBox="0 0 127 126" fill="none" xmlns="http://www.w3.org/2000/svg">
<path d="M63.71 125.66C98.41 125.66 126.54 97.5301 126.54 62.83C126.54 28.13 98.41 0 63.71 0C29.0099 0 0.880005 28.13 0.880005 62.83C0.880005 97.5301 29.0099 125.66 63.71 125.66Z" fill="#4C85F4"/>
<path d="M24.92 69.95C25.358 69.3254 25.8608 68.7489 26.42 68.23C28.16 66.92 29.97 65.73 31.74 64.47C34.1246 62.7311 37.032 61.8596 39.98 62C40.2738 61.9979 40.5573 61.8916 40.78 61.7C43.7067 59.1067 46.6233 56.5 49.53 53.88C49.7841 53.636 49.9969 53.3523 50.16 53.04C53.8733 46.6467 57.57 40.25 61.25 33.85C63.32 30.27 66.4 29.12 70.31 30.5C79.5767 33.7533 88.8467 37.01 98.12 40.27C101.76 41.54 103.44 45.12 101.97 48.42C101.349 49.8071 100.221 50.9036 98.8165 51.4839C97.4121 52.0643 95.8387 52.0844 94.42 51.54C89.56 49.8533 84.71 48.15 79.87 46.43L71.87 43.62C71.5745 43.4702 71.251 43.3838 70.9202 43.3663C70.5894 43.3487 70.2585 43.4005 69.9488 43.5181C69.6391 43.6358 69.3574 43.8168 69.1217 44.0496C68.886 44.2824 68.7015 44.5618 68.58 44.87C67.04 47.53 65.51 50.2 63.95 52.87C63.8335 53.0437 63.7639 53.2446 63.7481 53.4531C63.7323 53.6617 63.7709 53.8708 63.86 54.06C64.24 55.06 64.59 55.99 64.99 57.06C68.27 53.06 72.4 51.45 77.39 52.64C79.6494 53.1084 81.718 54.2395 83.3317 55.8888C84.9454 57.5382 86.031 59.6309 86.45 61.9C87.9913 61.9941 89.5266 62.1677 91.05 62.42C92.2805 62.6826 93.4572 63.1526 94.53 63.81C96.94 65.34 99.25 67.01 101.53 68.67C101.919 68.9748 102.196 69.3991 102.32 69.8773C102.443 70.3554 102.406 70.861 102.214 71.3159C102.022 71.7709 101.685 72.1499 101.256 72.3947C100.827 72.6394 100.329 72.7361 99.84 72.67C99.3313 72.5445 98.8523 72.3202 98.43 72.01C96.68 70.82 94.95 69.59 93.22 68.37C91.7926 67.2369 90.0354 66.5987 88.2135 66.5518C86.3916 66.5049 84.6039 67.0518 83.12 68.11C80.9834 69.606 78.4383 70.4085 75.83 70.4085C73.2217 70.4085 70.6766 69.606 68.54 68.11C67.1085 67.0929 65.396 66.5465 63.64 66.5465C61.884 66.5465 60.1715 67.0929 58.74 68.11C56.619 69.5841 54.0979 70.3741 51.515 70.3741C48.9321 70.3741 46.411 69.5841 44.29 68.11C40.76 65.9 37.51 65.93 34.07 68.33L28.98 71.89C27.16 73.16 25.92 72.89 24.87 70.96L24.92 69.95Z" fill="white"/>
<path d="M24.92 92.98C25.3527 92.3513 25.856 91.7742 26.42 91.26C28.34 89.83 30.28 88.4 32.31 87.14C34.3899 85.7134 36.8529 84.9498 39.375 84.9498C41.8972 84.9498 44.3602 85.7134 46.44 87.14C47.927 88.2013 49.7082 88.7718 51.535 88.7718C53.3618 88.7718 55.1431 88.2013 56.63 87.14C58.7117 85.6944 61.1856 84.9196 63.72 84.9196C66.2544 84.9196 68.7283 85.6944 70.81 87.14C72.2792 88.1847 74.0372 88.746 75.84 88.746C77.6428 88.746 79.4008 88.1847 80.87 87.14C85.76 84.06 90.69 84.14 95.51 87.33C97.51 88.61 99.36 90 101.28 91.33C101.571 91.4808 101.827 91.6922 102.03 91.9501C102.233 92.2079 102.379 92.5062 102.457 92.825C102.535 93.1437 102.544 93.4754 102.483 93.798C102.423 94.1205 102.294 94.4263 102.105 94.6948C101.917 94.9633 101.673 95.1884 101.39 95.3549C101.107 95.5214 100.792 95.6254 100.466 95.66C100.139 95.6946 99.8093 95.6589 99.4978 95.5555C99.1864 95.452 98.9007 95.283 98.66 95.06L93.2 91.24C91.777 90.1362 90.0369 89.5189 88.2364 89.4793C86.4358 89.4397 84.6702 89.9798 83.2 91.02C81.0645 92.5188 78.519 93.3229 75.91 93.3229C73.3011 93.3229 70.7555 92.5188 68.62 91.02C67.1868 90.0071 65.475 89.4633 63.72 89.4633C61.965 89.4633 60.2532 90.0071 58.82 91.02C56.7001 92.4968 54.1786 93.2885 51.595 93.2885C49.0114 93.2885 46.4899 92.4968 44.37 91.02C40.85 88.81 37.58 88.85 34.15 91.24L29.06 94.8C27.24 96.07 26.01 95.8 24.95 93.88L24.92 92.98Z" fill="white"/>
<path d="M24.92 81.92C25.4263 81.2841 25.9922 80.6981 26.61 80.17C28.7683 78.5057 31.0295 76.9794 33.38 75.6C35.3705 74.4702 37.6374 73.9201 39.9243 74.012C42.2112 74.1039 44.4267 74.8341 46.32 76.12C47.9586 77.2717 49.9173 77.8803 51.92 77.86C53.4929 77.7869 55.0139 77.2741 56.31 76.38C58.4983 74.8566 61.1037 74.0463 63.77 74.06C66.3406 74.0662 68.8496 74.8468 70.97 76.3C72.1279 77.1437 73.4857 77.6713 74.9095 77.8309C76.3332 77.9904 77.774 77.7764 79.09 77.21C79.7569 76.9078 80.399 76.5534 81.01 76.15C83.104 74.7519 85.568 74.0116 88.0857 74.0241C90.6035 74.0366 93.06 74.8013 95.14 76.22C97.3 77.57 99.34 79.11 101.42 80.58C101.682 80.7454 101.908 80.9628 102.083 81.2188C102.259 81.4748 102.379 81.7641 102.439 82.0686C102.498 82.3732 102.494 82.6866 102.427 82.9896C102.36 83.2925 102.232 83.5785 102.05 83.83C101.876 84.0807 101.653 84.2933 101.395 84.4547C101.136 84.6162 100.847 84.7231 100.546 84.769C100.244 84.8149 99.9365 84.7987 99.6415 84.7215C99.3465 84.6443 99.0703 84.5077 98.83 84.32C97 83.07 95.18 81.79 93.37 80.51C89.88 78.05 86.61 78.02 83.02 80.26C80.9255 81.7111 78.4381 82.4886 75.89 82.4886C73.3419 82.4886 70.8546 81.7111 68.76 80.26C67.2812 79.2066 65.5107 78.6405 63.695 78.6405C61.8794 78.6405 60.1089 79.2066 58.63 80.26C56.541 81.6966 54.0653 82.4657 51.53 82.4657C48.9947 82.4657 46.519 81.6966 44.43 80.26C40.75 77.97 37.6 78 34.02 80.5C32.36 81.6533 30.6934 82.81 29.02 83.97C27.18 85.25 26.02 84.97 24.88 83.1L24.92 81.92Z" fill="white"/>
</svg>
