<svg width="126" height="127" viewBox="0 0 126 127" fill="none" xmlns="http://www.w3.org/2000/svg">
<path d="M62.91 126.31C97.6101 126.31 125.74 98.1801 125.74 63.48C125.74 28.78 97.6101 0.650024 62.91 0.650024C28.21 0.650024 0.0800171 28.78 0.0800171 63.48C0.0800171 98.1801 28.21 126.31 62.91 126.31Z" fill="#896239"/>
<path d="M93.1 40.22C92.97 40.75 92.85 41.28 92.71 41.8C92.2483 43.7357 91.2007 45.4818 89.71 46.8C87.61 48.6 85.41 50.29 83.32 51.97L69.38 38.05L70.06 37.19C71.35 35.56 72.64 33.92 73.95 32.3C75.6375 30.1097 78.1202 28.6725 80.86 28.3C80.966 28.2671 81.0695 28.227 81.17 28.18H83.65C83.7695 28.2337 83.8933 28.2772 84.02 28.31C86.1108 28.6309 88.0606 29.5609 89.6257 30.9838C91.1909 32.4066 92.3019 34.2592 92.82 36.31C92.94 36.8 93.03 37.31 93.14 37.78L93.1 40.22Z" fill="white"/>
<path d="M66.59 41.54L79.8 54.76L49.08 79.16L42.17 72.25L66.59 41.54Z" fill="white"/>
<path d="M27.41 84.07C27.9947 84.0518 28.5771 84.1523 29.122 84.3655C29.6668 84.5786 30.1628 84.8999 30.58 85.31C32.42 87.11 34.25 88.91 36.02 90.76C36.8489 91.643 37.305 92.8118 37.2931 94.0228C37.2813 95.2337 36.8025 96.3934 35.9566 97.26C35.1106 98.1266 33.9628 98.6332 32.7525 98.6742C31.5421 98.7152 30.3627 98.2874 29.46 97.48C27.53 95.68 25.66 93.82 23.87 91.89C23.2323 91.2311 22.8147 90.3904 22.675 89.4841C22.5353 88.5778 22.6803 87.6505 23.09 86.83C23.4593 85.9965 24.0659 85.2901 24.8342 84.7993C25.6025 84.3084 26.4984 84.0548 27.41 84.07Z" fill="white"/>
<path d="M39.34 88.22L33.18 82.05L39.41 75.82L45.57 81.99L39.34 88.22Z" fill="white"/>
<path d="M74.92 89.93C84.28 86.12 89.09 79.18 90.24 69.42C92.3908 69.67 94.4595 70.3933 96.2975 71.5379C98.1354 72.6825 99.697 74.2201 100.87 76.04C92.62 81.37 88.52 88.73 89.2 98.71C81.11 98.74 77.43 95.8 74.92 89.93Z" fill="white"/>
<path d="M76.75 75.06C77.49 74.32 78.18 73.54 78.97 72.85C80.9087 71.1535 83.2863 70.0375 85.83 69.63C85.67 76.2 80.41 83.63 73.83 85.63C73.83 84.63 73.83 83.76 73.83 82.84C73.9403 81.108 74.3745 79.412 75.11 77.84C75.1731 77.6922 75.22 77.5379 75.25 77.38L76.75 75.06Z" fill="white"/>
<path d="M102.6 80.05C103.62 83.6098 103.249 87.4244 101.561 90.7205C99.873 94.0165 96.9949 96.5474 93.51 97.8C92.3 92.24 95.99 83.61 102.6 80.05Z" fill="white"/>
</svg>
