<svg width="126" height="127" viewBox="0 0 126 127" fill="none" xmlns="http://www.w3.org/2000/svg">
<path d="M63.05 126.08C97.75 126.08 125.88 97.95 125.88 63.2499C125.88 28.5499 97.75 0.419922 63.05 0.419922C28.3499 0.419922 0.219971 28.5499 0.219971 63.2499C0.219971 97.95 28.3499 126.08 63.05 126.08Z" fill="#9B005D"/>
<path d="M99.82 49.7399C99.54 51.1399 99.33 52.5599 98.98 53.9399C97.9573 57.5554 95.9368 60.8097 93.15 63.33C92.8 63.67 92.52 63.5199 92.15 63.3799L76.15 56.5999C69.8433 53.9333 63.53 51.2666 57.21 48.5999C56.981 48.5306 56.7845 48.3815 56.6561 48.1797C56.5276 47.9779 56.4758 47.7367 56.51 47.4999C56.6165 42.4762 58.4841 37.6494 61.7868 33.8624C65.0895 30.0753 69.6174 27.5686 74.58 26.7799C80.2247 25.8951 85.9912 27.2627 90.6373 30.5883C95.2834 33.9139 98.4374 38.9314 99.42 44.5599C99.55 45.2399 99.64 45.93 99.75 46.61L99.82 49.7399Z" fill="white"/>
<path d="M47.25 100.01C47.09 99.9599 46.94 99.8899 46.78 99.8499C45.8638 99.5818 45.0616 99.0191 44.4976 98.249C43.9335 97.4789 43.6391 96.5443 43.66 95.5899C43.66 89.9399 43.66 84.2999 43.66 78.6499V77.7499C40.2338 77.0637 37.0315 75.5381 34.34 73.3099C33.04 72.2299 31.89 70.9799 30.68 69.8099L30.81 69.6199H59.59C58.76 71.6199 57.91 73.5399 57.12 75.5099C57.0287 75.7466 56.885 75.9595 56.6997 76.1327C56.5143 76.3059 56.2922 76.4348 56.05 76.5099C54.8 76.9199 53.57 77.3599 52.28 77.8099V94.8099C52.28 97.8099 51.51 98.9499 48.68 100.01H47.25Z" fill="white"/>
<path d="M54.97 36.3899C50.33 46.7999 51.77 56.3899 58.83 65.2499H58.1C48.36 65.2499 38.62 65.2499 28.89 65.2499C28.6681 65.2594 28.4494 65.1948 28.2684 65.0662C28.0873 64.9377 27.9542 64.7525 27.89 64.5399C26.7425 61.6605 26.2318 58.5668 26.393 55.4714C26.5541 52.3759 27.3833 49.352 28.8236 46.6073C30.2639 43.8625 32.2811 41.462 34.7368 39.5706C37.1925 37.6792 40.0285 36.3417 43.05 35.6499C46.8618 34.7164 50.8622 34.904 54.57 36.1899L54.97 36.3299C54.98 36.3699 55 36.4199 54.97 36.3899Z" fill="white"/>
<path d="M65.83 65.7599C62.8844 63.7292 60.5115 60.9741 58.94 57.7599C58.25 56.3599 57.75 54.8699 57.17 53.4199L57.38 53.2399L88.82 66.5799C84.2906 69.2099 78.9614 70.1088 73.82 69.1099L71.69 74.1099C70.12 77.8299 68.55 81.5499 66.95 85.2599C66.7434 85.7981 66.4306 86.2892 66.0304 86.704C65.6302 87.1189 65.1507 87.4491 64.6203 87.6749C64.09 87.9007 63.5196 88.0176 62.9432 88.0186C62.3667 88.0196 61.796 87.9047 61.2648 87.6807C60.7337 87.4567 60.253 87.1282 59.8514 86.7147C59.4497 86.3013 59.1353 85.8112 58.9268 85.2738C58.7183 84.7364 58.62 84.1626 58.6378 83.5864C58.6555 83.0102 58.7888 82.4435 59.03 81.9199C60.39 78.6499 61.78 75.4099 63.16 72.1499L65.6 66.4099C65.65 66.2399 65.73 66.0199 65.83 65.7599Z" fill="white"/>
<path d="M87.48 86.8299C87.476 87.9999 87.1255 89.1425 86.4726 90.1134C85.8197 91.0844 84.8937 91.84 83.8116 92.285C82.7296 92.73 81.5399 92.8444 80.3928 92.6137C79.2458 92.383 78.1928 91.8177 77.3669 90.9889C76.5409 90.1602 75.9791 89.1054 75.7523 87.9575C75.5255 86.8097 75.6439 85.6204 76.0926 84.5398C76.5412 83.4593 77.3 82.5359 78.2731 81.8862C79.2462 81.2366 80.39 80.8899 81.56 80.8899C82.3387 80.8913 83.1096 81.0459 83.8285 81.3451C84.5475 81.6444 85.2005 82.0823 85.7502 82.6339C86.2999 83.1854 86.7356 83.8399 87.0324 84.5599C87.3292 85.2798 87.4813 86.0512 87.48 86.8299Z" fill="white"/>
</svg>
