<svg width="127" height="126" viewBox="0 0 127 126" fill="none" xmlns="http://www.w3.org/2000/svg">
<path d="M63.77 125.66C98.47 125.66 126.6 97.5301 126.6 62.83C126.6 28.13 98.47 0 63.77 0C29.0699 0 0.940002 28.13 0.940002 62.83C0.940002 97.5301 29.0699 125.66 63.77 125.66Z" fill="#00A69A"/>
<path d="M100.5 47.07C100.29 48.39 100.15 49.72 99.85 51.01C98.1819 58.3577 93.9216 64.8582 87.85 69.32C83.8042 72.4792 79.0015 74.5237 73.92 75.25C71.6694 75.5666 69.3875 75.5935 67.13 75.33C66.7081 75.2878 66.2821 75.3355 65.88 75.47C61.76 76.91 57.64 78.35 53.54 79.85C52.9968 80.0989 52.3865 80.1613 51.8042 80.0275C51.2218 79.8936 50.7001 79.5711 50.32 79.11C48.61 77.31 46.85 75.56 45.05 73.84C44.597 73.4675 44.2797 72.9556 44.1477 72.3841C44.0157 71.8126 44.0762 71.2135 44.32 70.68C45.83 66.54 47.32 62.37 48.74 58.21C48.8589 57.8908 48.9067 57.5496 48.88 57.21C47.88 46.95 51.69 38.62 59.05 31.74C63.1252 27.861 68.2326 25.2396 73.76 24.19C80.46 22.91 86.76 23.83 92.31 28.05C94.4724 29.6803 96.2864 31.7271 97.6449 34.0698C99.0034 36.4124 99.879 39.0035 100.22 41.69L100.49 43.45L100.5 47.07ZM65.42 55.57L71.42 49.57L67.01 45.17L61.01 51.17L65.42 55.57ZM74.59 52.78L68.64 58.73L73.06 63.15L79.01 57.21L74.59 52.78ZM74.59 46.39L80.47 40.51L76.04 36.1L70.19 41.96L74.59 46.39ZM82.17 53.97L88.03 48.11L83.68 43.72L77.79 49.6L82.17 53.97ZM51.17 64.4C50.38 66.64 49.66 68.73 48.89 70.8C48.8071 70.9694 48.7867 71.1627 48.8325 71.3456C48.8782 71.5286 48.9871 71.6895 49.14 71.8C50.27 72.89 51.38 74.01 52.48 75.14C52.5885 75.2781 52.742 75.3738 52.9137 75.4103C53.0855 75.4469 53.2647 75.422 53.42 75.34C55.34 74.64 57.28 73.97 59.21 73.34C59.37 73.28 59.52 73.18 59.76 73.06C56.0874 71.0974 53.0855 68.0816 51.14 64.4H51.17ZM62.27 58.74L57.78 54.28C56.51 55.56 55.17 56.88 53.86 58.23C53.7836 58.3105 53.726 58.407 53.6914 58.5125C53.6568 58.618 53.6461 58.7299 53.66 58.84C54.1761 60.9268 55.1117 62.8866 56.41 64.6L62.27 58.74ZM65.59 61.98L59.69 67.87C61.0796 68.8624 62.5966 69.6629 64.2 70.25C64.6302 70.4847 65.1317 70.5532 65.6091 70.4426C66.0866 70.332 66.5068 70.05 66.79 69.65C67.79 68.48 68.94 67.45 70 66.39L65.59 61.98ZM57.8 48.04L63.8 42.04L59.41 37.6C57.5916 39.6889 56.1135 42.0512 55.03 44.6C54.9967 44.7017 54.9875 44.8097 55.0031 44.9156C55.0187 45.0215 55.0587 45.1223 55.12 45.21C55.92 46.22 56.92 47.16 57.77 48.04H57.8ZM82.3 60.3L76.19 66.43C77.09 67.31 78.01 68.24 78.97 69.14C79.0698 69.2006 79.1826 69.2367 79.299 69.2454C79.4155 69.2541 79.5323 69.2351 79.64 69.19C80.84 68.6 82.06 68.04 83.19 67.34C84.32 66.64 85.55 65.68 86.76 64.82L86.26 64.28L82.3 60.3ZM83.82 37.36L89.73 31.56C88.2297 30.3835 86.5385 29.4736 84.73 28.87C84.3691 28.6747 83.948 28.6218 83.5499 28.7217C83.1519 28.8217 82.8058 29.0673 82.58 29.41C82.0052 30.0831 81.3801 30.7116 80.71 31.29C80.18 31.79 79.61 32.29 79.12 32.68L83.82 37.36ZM73.01 32.81C72.14 31.94 71.25 31.08 70.4 30.19C70.3493 30.1184 70.2849 30.0577 70.2104 30.0113C70.136 29.9649 70.0531 29.9338 69.9665 29.9198C69.8799 29.9059 69.7914 29.9093 69.7061 29.93C69.6209 29.9506 69.5406 29.988 69.47 30.04C67.7 31.04 65.92 32.04 64.17 33.13C63.6128 33.5108 63.0816 33.9284 62.58 34.38L67 38.81L73.01 32.81ZM87.01 40.42L91.46 44.9L95.4 40.95C95.4628 40.8856 95.5112 40.8086 95.5422 40.7242C95.5732 40.6398 95.5861 40.5497 95.58 40.46C95.0617 38.3458 94.1194 36.359 92.81 34.62L87.01 40.42ZM91.44 51.21L85.44 57.21L89.84 61.6C91.6448 59.5087 93.1094 57.1465 94.18 54.6C94.2089 54.4889 94.2121 54.3727 94.1896 54.2601C94.1671 54.1475 94.1194 54.0415 94.05 53.95C93.21 52.98 92.31 52.09 91.44 51.21ZM53.34 49.7L52.99 52.89L54.75 51.13L53.34 49.7ZM73.22 69.56L71.5 71.21L74.5 70.83L73.22 69.56ZM77.92 27.99L74.87 28.36L76.2 29.72L77.92 27.99ZM95.86 49.39L96.23 46.39L94.53 48.17L95.86 49.39Z" fill="white"/>
<path d="M91.61 97.16C90.3924 96.7882 89.2162 96.2923 88.1 95.68C86.6622 94.7092 85.5938 93.2819 85.0675 91.6288C84.5413 89.9756 84.5879 88.1933 85.2 86.57C85.7961 84.9376 86.9152 83.548 88.383 82.6176C89.8508 81.6872 91.585 81.2681 93.3158 81.4255C95.0465 81.5829 96.6766 82.3081 97.9524 83.4881C99.2283 84.6681 100.078 86.2368 100.37 87.95C100.403 88.0606 100.446 88.1678 100.5 88.27V90.27C100.444 90.3966 100.398 90.5269 100.36 90.66C100.117 92.0778 99.485 93.4003 98.5353 94.4807C97.5855 95.5611 96.3549 96.357 94.98 96.78C94.53 96.93 94.07 97.03 93.62 97.15L91.61 97.16Z" fill="white"/>
<path d="M31.39 97.16C29.8528 96.386 28.5381 95.233 27.57 93.81C27.1856 93.3071 26.9979 92.6811 27.0421 92.0497C27.0863 91.4182 27.3593 90.8245 27.81 90.38C30.35 87.8 32.94 85.26 35.47 82.74L41.64 88.97C41.4355 89.0323 41.2452 89.1342 41.08 89.27C39.01 91.27 36.98 93.4 34.89 95.42C34.1868 96.0412 33.4489 96.6222 32.68 97.16H31.39Z" fill="white"/>
<path d="M47.56 82.53L44.64 85.44L38.8 79.57L41.72 76.69L47.56 82.53Z" fill="white"/>
</svg>
