<svg width="127" height="127" viewBox="0 0 127 127" fill="none" xmlns="http://www.w3.org/2000/svg">
<path d="M63.74 126.01C98.4401 126.01 126.57 97.88 126.57 63.18C126.57 28.4799 98.4401 0.349976 63.74 0.349976C29.04 0.349976 0.910034 28.4799 0.910034 63.18C0.910034 97.88 29.04 126.01 63.74 126.01Z" fill="#910909"/>
<path d="M42.36 97.65C42.36 88.43 42.36 79.2199 42.36 70.0099C42.36 60.6233 46.59 53.8533 55.05 49.7C55.13 49.7 55.2 49.6 55.29 49.55C53.0648 47.8011 51.4402 45.402 50.6422 42.6866C49.8442 39.9712 49.9127 37.0746 50.838 34.3998C51.7632 31.7251 53.4993 29.4054 55.8046 27.7635C58.1099 26.1217 60.8698 25.2393 63.7001 25.2393C66.5303 25.2393 69.2901 26.1217 71.5955 27.7635C73.9008 29.4054 75.6368 31.7251 76.5621 34.3998C77.4874 37.0746 77.5558 39.9712 76.7579 42.6866C75.9599 45.402 74.3353 47.8011 72.11 49.55C72.58 49.79 73.0501 50 73.5001 50.25C80.8201 54.31 84.8401 60.5099 85.0101 68.8799C85.2001 78.4699 85.0101 88.06 85.0101 97.65H42.36ZM48.83 74.95C48.8102 77.8974 49.6657 80.7844 51.288 83.2453C52.9103 85.7062 55.2264 87.6302 57.9431 88.7737C60.6597 89.9172 63.6546 90.2287 66.5485 89.6688C69.4423 89.1088 72.1048 87.7026 74.1988 85.6282C76.2928 83.5539 77.724 80.9047 78.3112 78.0163C78.8984 75.1279 78.6152 72.1301 77.4973 69.4028C76.3795 66.6755 74.4774 64.3413 72.0319 62.6959C69.5864 61.0505 66.7076 60.168 63.7601 60.16C59.8197 60.144 56.0342 61.6927 53.2348 64.4658C50.4355 67.2389 48.8512 71.0096 48.83 74.95ZM63.6801 44.95C64.9419 44.9578 66.1777 44.5914 67.2312 43.8969C68.2847 43.2024 69.1087 42.2112 69.5989 41.0485C70.089 39.8857 70.2234 38.6037 69.985 37.3646C69.7466 36.1255 69.1461 34.985 68.2595 34.0872C67.3728 33.1893 66.2399 32.5745 65.0038 32.3206C63.7678 32.0667 62.4842 32.185 61.3154 32.6605C60.1466 33.1361 59.1451 33.9476 58.4375 34.9923C57.7299 36.0371 57.348 37.2682 57.34 38.53C57.3348 39.3664 57.4948 40.1956 57.8109 40.97C58.127 41.7444 58.5931 42.4487 59.1822 43.0424C59.7713 43.6362 60.4719 44.1077 61.2438 44.4299C62.0157 44.7521 62.8436 44.9187 63.6801 44.92V44.95Z" fill="white"/>
<path d="M63.69 64.38C65.794 64.376 67.8519 64.996 69.6036 66.1614C71.3553 67.3268 72.7222 68.9853 73.5314 70.9274C74.3407 72.8695 74.556 75.008 74.1501 77.0725C73.7443 79.1369 72.7355 81.0347 71.2513 82.5259C69.767 84.0171 67.874 85.0348 65.8115 85.4504C63.749 85.8659 61.6096 85.6607 59.6637 84.8605C57.7178 84.0604 56.0528 82.7014 54.8791 80.9552C53.7055 79.2089 53.076 77.154 53.0701 75.05C53.0621 73.6508 53.331 72.2638 53.8613 70.9689C54.3916 69.6741 55.1728 68.4969 56.1598 67.5052C57.1469 66.5135 58.3204 65.7268 59.6128 65.1904C60.9051 64.6541 62.2908 64.3786 63.69 64.38ZM63.74 68.65C62.4806 68.6441 61.2477 69.0116 60.1971 69.7062C59.1465 70.4008 58.3254 71.3912 57.8375 72.5523C57.3496 73.7134 57.2169 74.9931 57.456 76.2296C57.6952 77.4661 58.2955 78.604 59.1812 79.4994C60.0668 80.3948 61.1981 81.0076 62.4319 81.2603C63.6657 81.5131 64.9468 81.3944 66.1131 80.9193C67.2795 80.4442 68.2789 79.634 68.985 78.5911C69.691 77.5482 70.0721 76.3194 70.08 75.06C70.0853 74.2227 69.9254 73.3925 69.6095 72.617C69.2937 71.8414 68.8279 71.1358 68.2391 70.5404C67.6502 69.9451 66.9498 69.4717 66.1778 69.1473C65.4058 68.8229 64.5774 68.6539 63.74 68.65Z" fill="white"/>
<path d="M63.7001 40.67C63.4171 40.6729 63.1364 40.6183 62.8751 40.5095C62.6139 40.4007 62.3774 40.2399 62.1801 40.037C61.9828 39.8341 61.8288 39.5933 61.7274 39.3291C61.6259 39.0649 61.5792 38.7828 61.59 38.5C61.5781 38.209 61.6261 37.9186 61.7308 37.6468C61.8356 37.3751 61.995 37.1277 62.1992 36.92C62.4033 36.7122 62.6479 36.5486 62.9178 36.4391C63.1877 36.3297 63.4772 36.2767 63.7684 36.2835C64.0596 36.2904 64.3462 36.3569 64.6107 36.4789C64.8751 36.6009 65.1118 36.7759 65.3059 36.993C65.5001 37.2101 65.6477 37.4647 65.7396 37.7411C65.8314 38.0175 65.8656 38.3098 65.84 38.6C65.8361 38.8766 65.7776 39.1497 65.6679 39.4037C65.5581 39.6576 65.3991 39.8874 65.2003 40.0798C65.0014 40.2721 64.7665 40.4233 64.509 40.5246C64.2516 40.6259 63.9767 40.6753 63.7001 40.67Z" fill="white"/>
<path d="M63.7001 77.16C63.2771 77.1579 62.8644 77.0299 62.5144 76.7923C62.1645 76.5548 61.8931 76.2184 61.735 75.8262C61.5769 75.4339 61.5392 75.0034 61.6266 74.5896C61.7141 74.1758 61.9228 73.7974 62.2261 73.5026C62.5294 73.2078 62.9135 73.01 63.3297 72.9343C63.7458 72.8587 64.175 72.9086 64.5627 73.0778C64.9503 73.247 65.2788 73.5278 65.5063 73.8843C65.7338 74.2409 65.85 74.6571 65.84 75.0799C65.8295 75.6387 65.5988 76.1708 65.198 76.5603C64.7972 76.9498 64.2589 77.1653 63.7001 77.16Z" fill="white"/>
</svg>
