<svg width="127" height="127" viewBox="0 0 127 127" fill="none" xmlns="http://www.w3.org/2000/svg">
<path d="M63.49 126.08C98.19 126.08 126.32 97.95 126.32 63.2499C126.32 28.5499 98.19 0.419922 63.49 0.419922C28.7899 0.419922 0.659973 28.5499 0.659973 63.2499C0.659973 97.95 28.7899 126.08 63.49 126.08Z" fill="#721E0D"/>
<path d="M97.61 27.5999C98.1401 27.8343 98.5788 28.2361 98.8587 28.7436C99.1387 29.2512 99.2445 29.8365 99.16 30.4099C99.1 33.9799 99.16 37.5499 99.16 41.1299C99.0993 45.7365 97.4501 50.1808 94.4911 53.7119C91.5322 57.2429 87.4449 59.6442 82.92 60.5099C82.09 60.6599 81.78 60.4299 81.78 59.5999C81.78 56.1899 81.78 52.7799 81.78 49.3699C81.7557 48.8293 81.9307 48.2986 82.2716 47.8783C82.6126 47.4581 83.096 47.1775 83.63 47.0899C86.265 46.3361 88.6554 44.9026 90.5616 42.9333C92.4677 40.964 93.8225 38.5281 94.49 35.8699C94.9549 34.093 95.1238 32.2517 94.99 30.4199C94.9024 29.8461 95.0056 29.2594 95.2838 28.7499C95.5621 28.2404 95.9999 27.8364 96.53 27.5999H97.61Z" fill="white"/>
<path d="M30.48 27.5999C31.0082 27.8381 31.4439 28.2428 31.7202 28.7521C31.9965 29.2614 32.0984 29.8473 32.01 30.4199C31.805 33.0687 32.2441 35.7278 33.29 38.1699C34.1996 40.2987 35.5673 42.2008 37.2957 43.7409C39.0241 45.2809 41.0708 46.421 43.29 47.0799C44.83 47.5699 45.29 48.2199 45.19 49.9799C45.08 53.0599 45.09 56.1499 45.19 59.2399C45.19 60.4199 45.01 60.6799 43.98 60.4899C39.8095 59.6813 36.0049 57.5658 33.1174 54.45C30.2298 51.3341 28.4094 47.3797 27.92 43.1599C27.8872 42.9545 27.8438 42.7509 27.79 42.5499V30.0799C27.7824 29.5676 27.9202 29.0636 28.1875 28.6264C28.4548 28.1892 28.8405 27.8368 29.3 27.6099H30.45L30.48 27.5999Z" fill="white"/>
<path d="M74.57 70.0399L75.1499 70.1899C75.6048 70.2875 76.0115 70.5406 76.2998 70.9056C76.5882 71.2707 76.7403 71.7248 76.7299 72.1899C76.7299 74.4699 76.7299 76.7399 76.7299 79.0199C76.6909 79.4996 76.5215 79.9595 76.24 80.3499C75.59 81.3499 74.8699 82.2299 74.1599 83.1499C73.9174 83.4593 73.7401 83.8147 73.6387 84.1945C73.5373 84.5744 73.5139 84.9708 73.57 85.3599C73.75 87.2299 73.92 89.1099 74.05 90.9799C74.1434 91.9982 74.0229 93.0247 73.696 93.9935C73.369 94.9624 72.843 95.8521 72.1518 96.6055C71.4605 97.359 70.6192 97.9594 69.682 98.3684C68.7449 98.7773 67.7324 98.9856 66.7099 98.9799C65.7512 98.8163 64.8148 98.541 63.92 98.1599C63.68 98.0999 63.35 97.9899 63.19 98.0999C60.69 99.7899 56.81 98.8199 54.75 96.4499C54.0868 95.7079 53.5824 94.8381 53.2677 93.894C52.953 92.9499 52.8347 91.9514 52.92 90.9599C53.0466 89.0799 53.2066 87.2066 53.3999 85.3399C53.4563 84.9377 53.4305 84.5282 53.3239 84.1363C53.2173 83.7444 53.0322 83.3782 52.7799 83.0599C52.1199 82.1999 51.4199 81.3499 50.8399 80.4299C50.496 79.8952 50.2899 79.2837 50.24 78.6499C50.16 76.7699 50.24 74.8899 50.24 73.0099C50.24 71.1299 50.5299 70.5899 52.3999 70.0099C52.4412 69.4055 52.2412 68.8094 51.8439 68.352C51.4466 67.8947 50.8842 67.6135 50.2799 67.5699C48.2799 67.3599 47.5399 66.2099 48.2799 64.3899C49.2019 62.0614 49.6079 59.5606 49.4699 57.0599C49.3599 54.7199 49.4699 52.3699 49.4699 50.0599C49.4368 49.7511 49.4733 49.4388 49.5766 49.1459C49.68 48.853 49.8477 48.5869 50.0673 48.3673C50.2869 48.1476 50.553 47.98 50.8459 47.8766C51.1388 47.7733 51.4511 47.7368 51.76 47.7699C53.08 47.7699 54.4 47.7699 55.76 47.7699C56.0769 47.7553 56.387 47.6735 56.67 47.5299C58.7756 46.3473 61.15 45.7262 63.565 45.7262C65.98 45.7262 68.3543 46.3473 70.4599 47.5299C70.7695 47.6907 71.1113 47.7795 71.4599 47.7899C72.7799 47.7899 74.0999 47.7899 75.4599 47.7899C75.7634 47.7634 76.0689 47.8041 76.3548 47.9092C76.6407 48.0144 76.8999 48.1813 77.1139 48.3981C77.3278 48.6149 77.4912 48.8763 77.5926 49.1635C77.6939 49.4508 77.7306 49.7569 77.7 50.0599C77.7 53.2399 77.7 56.4199 77.7 59.5999C77.7387 60.4457 77.8729 61.2843 78.0999 62.0999C78.3299 62.9999 78.6799 63.8599 78.9599 64.7499C79.0952 65.0717 79.1469 65.4225 79.1101 65.7697C79.0734 66.1168 78.9496 66.4491 78.75 66.7355C78.5504 67.0219 78.2816 67.2531 77.9687 67.4078C77.6557 67.5624 77.3087 67.6354 76.9599 67.6199C76.6408 67.61 76.3231 67.666 76.0266 67.7845C75.7302 67.903 75.4614 68.0814 75.237 68.3086C75.0127 68.5357 74.8377 68.8067 74.7229 69.1047C74.6081 69.4026 74.5561 69.721 74.57 70.0399Z" fill="white"/>
</svg>
