<svg width="126" height="127" viewBox="0 0 126 127" fill="none" xmlns="http://www.w3.org/2000/svg">
<path d="M62.83 126.31C97.5301 126.31 125.66 98.1801 125.66 63.48C125.66 28.78 97.5301 0.650024 62.83 0.650024C28.13 0.650024 0 28.78 0 63.48C0 98.1801 28.13 126.31 62.83 126.31Z" fill="#662D8E"/>
<path d="M60.58 99.4C59.22 99.21 57.85 99.07 56.5 98.83C52.0357 98.0476 47.7642 96.411 43.92 94.01L43.66 93.81C43.86 93.67 44.03 93.55 44.2 93.45C55.2 87.1 61.75 77.64 64.3 65.29C64.3375 65.1452 64.4049 65.0099 64.4979 64.8928C64.5909 64.7757 64.7075 64.6794 64.84 64.61C70.4234 62.7379 76.3808 62.2641 82.19 63.23C82.2669 63.2631 82.3406 63.3033 82.41 63.35C82.1 64.58 81.82 65.85 81.47 67.1C78.528 77.6979 73.1597 87.4656 65.79 95.63C64.62 96.92 63.37 98.15 62.15 99.4H60.58Z" fill="white"/>
<path d="M26.92 61.24C27.11 59.88 27.26 58.51 27.49 57.15C27.9178 54.6692 28.6221 52.244 29.59 49.92C33.3712 62.7948 40.4883 74.4415 50.22 83.68C49.098 84.7426 47.9196 85.7441 46.69 86.68C44.6 88.12 42.4 89.4 40.25 90.76C40.1133 90.8646 39.9408 90.9106 39.7702 90.8881C39.5996 90.8656 39.4449 90.7764 39.34 90.64C32.8618 85.0674 28.6028 77.3515 27.34 68.9C27.17 67.84 27.06 66.77 26.92 65.71V61.24Z" fill="white"/>
<path d="M98.68 65.16C96.93 64.23 95.29 63.24 93.56 62.45C84.0942 57.962 73.2549 57.3274 63.33 60.68C63.1758 60.7767 62.9939 60.8193 62.8129 60.8012C62.6318 60.7831 62.462 60.7053 62.33 60.5801C57.9932 56.7727 54.6094 52.0017 52.45 46.65C52.4142 46.563 52.3874 46.4725 52.37 46.38C52.3586 46.2837 52.3586 46.1864 52.37 46.09C54.59 45.5 56.85 44.84 59.14 44.31C65.5505 42.8454 72.134 42.2834 78.7 42.64C83.5551 42.8701 88.3672 43.662 93.04 45C93.3641 45.0927 93.6466 45.2939 93.84 45.57C97.251 51.4167 98.9199 58.1165 98.65 64.88C98.6691 64.9722 98.6791 65.0659 98.68 65.16Z" fill="white"/>
<path d="M52.82 80.54C50.7 78.16 48.5 75.88 46.53 73.43C40.3149 65.8098 35.8098 56.943 33.32 47.43C33.12 46.69 33 45.92 32.77 45.19C32.6581 44.8525 32.6334 44.4922 32.6981 44.1425C32.7628 43.7929 32.9148 43.4652 33.14 43.19C36.154 38.8279 40.0773 35.1707 44.64 32.47C44.93 32.3 45.24 32.15 45.64 31.9C45.64 32.78 45.64 33.52 45.64 34.26C45.7953 39.8257 47.1016 45.2989 49.4767 50.3348C51.8518 55.3706 55.2441 59.86 59.44 63.52C59.6789 63.6864 59.8595 63.9235 59.9564 64.1981C60.0533 64.4726 60.0615 64.7706 59.98 65.05C58.8748 70.5328 56.5509 75.6969 53.18 80.16C53.11 80.23 53.03 80.31 52.82 80.54Z" fill="white"/>
<path d="M68.5 98.91C77.4199 89.1163 83.6249 77.1612 86.5 64.23C86.76 64.3 86.99 64.36 87.22 64.44C90.9264 65.6075 94.4283 67.345 97.6 69.59C97.7892 69.6886 97.9367 69.8519 98.0157 70.0501C98.0946 70.2484 98.0997 70.4684 98.03 70.67C97.0373 75.6112 95.0091 80.2859 92.0789 84.3864C89.1487 88.487 85.3831 91.9202 81.03 94.46C77.2992 96.7048 73.1705 98.2089 68.87 98.89L68.5 98.91Z" fill="white"/>
<path d="M89.75 39.77C76.8409 37.199 63.4855 38.0225 50.99 42.16C50.6637 40.8051 50.4133 39.433 50.24 38.0501C50.05 35.5601 50.03 33.05 49.92 30.56C49.893 30.3792 49.9359 30.1948 50.0399 30.0444C50.1439 29.8939 50.3012 29.7887 50.48 29.75C57.2074 27.3049 64.5111 26.9209 71.4579 28.6469C78.4047 30.3729 84.6792 34.1306 89.48 39.44L89.75 39.77Z" fill="white"/>
</svg>
